<?xml version="1.0" encoding="utf-8"?>
<!-- Generator: Adobe Illustrator 18.0.0, SVG Export Plug-In . SVG Version: 6.00 Build 0)  -->
<!DOCTYPE svg PUBLIC "-//W3C//DTD SVG 1.1//EN" "http://www.w3.org/Graphics/SVG/1.1/DTD/svg11.dtd">
<svg version="1.1" id="US_UK_Download_on_the" xmlns="http://www.w3.org/2000/svg" xmlns:xlink="http://www.w3.org/1999/xlink"
	 x="0px" y="0px" viewBox="142.8 0 135 40" enable-background="new 142.8 0 135 40" xml:space="preserve">
<path fill="#FFFFFF" d="M273,40H147.6c-2.6,0-4.7-2.1-4.7-4.7V4.7c0-2.6,2.1-4.7,4.7-4.7H273c2.6,0,4.8,2.1,4.8,4.7v30.5
	C277.8,37.9,275.6,40,273,40L273,40z"/>
<path d="M276.9,35.3c0,2.1-1.7,3.8-3.8,3.8H147.6c-2.1,0-3.8-1.7-3.8-3.8V4.7c0-2.1,1.7-3.8,3.8-3.8H273c2.1,0,3.8,1.7,3.8,3.8
	L276.9,35.3L276.9,35.3z"/>
<g>
	<g>
		<g>
			<path fill="#FFFFFF" d="M231.1,29.1l-0.9,0.8c-0.2,0.1-0.4,0.2-0.6,0.3c-0.6,0.3-1.2,0.3-1.7,0.3c-0.6,0-1.5,0-2.4-0.7
				c-1.3-0.9-1.8-2.4-1.8-3.8c0-2.8,2.3-4.1,4.1-4.1c0.6,0,1.3,0.2,1.8,0.5c0.9,0.6,1.1,1.4,1.3,1.8l-4.2,1.7l-1.4,0.1
				c0.4,2.3,2,3.6,3.7,3.6C229.9,29.7,230.5,29.4,231.1,29.1C231.1,29.1,231.2,29.1,231.1,29.1z M228.6,24.6
				c0.3-0.1,0.5-0.2,0.5-0.5c0-0.7-0.8-1.5-1.8-1.5c-0.7,0-2.1,0.6-2.1,2.5c0,0.3,0,0.6,0.1,0.9L228.6,24.6z"/>
			<path fill="#FFFFFF" d="M222.3,29c0,0.7,0.1,0.8,0.7,0.9c0.3,0,0.6,0.1,0.9,0.1l-0.7,0.4h-3.2c0.4-0.5,0.5-0.6,0.5-0.9V29l0-10.6
				h-1.4l1.3-0.6h2.6c-0.6,0.3-0.7,0.5-0.8,1.1L222.3,29z"/>
			<path fill="#FFFFFF" d="M217.4,22.9c0.4,0.3,1.3,1.1,1.3,2.4c0,1.3-0.7,2-1.5,2.5c-0.2,0.2-0.5,0.5-0.5,0.9
				c0,0.4,0.3,0.6,0.5,0.8l0.6,0.5c0.8,0.7,1.5,1.3,1.5,2.5c0,1.7-1.6,3.4-4.7,3.4c-2.6,0-3.8-1.2-3.8-2.6c0-0.6,0.3-1.6,1.4-2.2
				c1.1-0.7,2.6-0.8,3.4-0.8c-0.3-0.3-0.5-0.7-0.5-1.2c0-0.3,0.1-0.5,0.2-0.7c-0.2,0-0.4,0-0.6,0c-1.9,0-3-1.4-3-2.8
				c0-0.8,0.4-1.7,1.1-2.4c1-0.8,2.2-1,3.2-1h3.7l-1.1,0.6H217.4z M216.2,30.8c-0.1,0-0.2,0-0.4,0c-0.2,0-1.1,0-1.9,0.3
				c-0.4,0.1-1.5,0.6-1.5,1.8c0,1.3,1.2,2.2,3.1,2.2c1.7,0,2.6-0.8,2.6-1.9C218.1,32.3,217.5,31.8,216.2,30.8z M216.7,27.4
				c0.4-0.4,0.4-1,0.4-1.3c0-1.3-0.8-3.3-2.3-3.3c-0.5,0-1,0.2-1.3,0.6c-0.3,0.4-0.4,0.9-0.4,1.3c0,1.2,0.7,3.2,2.2,3.2
				C215.9,27.9,216.4,27.7,216.7,27.4z"/>
			<path fill="#FFFFFF" d="M206.3,30.6c-2.8,0-4.4-2.2-4.4-4.2c0-2.3,1.9-4.3,4.6-4.3c2.6,0,4.3,2.1,4.3,4.2
				C210.9,28.3,209.3,30.6,206.3,30.6z M208.6,29.1c0.4-0.6,0.5-1.3,0.5-2c0-1.6-0.8-4.6-3-4.6c-0.6,0-1.2,0.2-1.6,0.6
				c-0.7,0.6-0.8,1.4-0.8,2.2c0,1.8,0.9,4.7,3,4.7C207.5,30,208.2,29.7,208.6,29.1z"/>
			<path fill="#FFFFFF" d="M196.8,30.6c-2.8,0-4.4-2.2-4.4-4.2c0-2.3,1.9-4.3,4.6-4.3c2.6,0,4.3,2.1,4.3,4.2
				C201.4,28.3,199.7,30.6,196.8,30.6z M199.1,29.1c0.4-0.6,0.5-1.3,0.5-2c0-1.6-0.8-4.6-3-4.6c-0.6,0-1.2,0.2-1.6,0.6
				c-0.7,0.6-0.8,1.4-0.8,2.2c0,1.8,0.9,4.7,3,4.7C197.9,30,198.6,29.7,199.1,29.1z"/>
			<path fill="#FFFFFF" d="M191.3,30l-2.4,0.5c-1,0.2-1.8,0.3-2.8,0.3c-4.6,0-6.4-3.4-6.4-6.1c0-3.3,2.5-6.3,6.8-6.3
				c0.9,0,1.8,0.1,2.6,0.3c1.3,0.4,1.8,0.8,2.2,1l-1.4,1.3l-0.6,0.1l0.4-0.7c-0.6-0.6-1.6-1.6-3.6-1.6c-2.6,0-4.6,2-4.6,5
				c0,3.2,2.3,6.1,5.9,6.1c1.1,0,1.6-0.2,2.1-0.4V27l-2.5,0.1l1.3-0.7h3.6l-0.4,0.4c-0.1,0.1-0.1,0.1-0.2,0.3c0,0.2,0,0.6,0,0.8V30z
				"/>
		</g>
		<g>
			<path fill="#FFFFFF" d="M236.3,29.2v4.6h-0.9V22.2h0.9v1.3c0.6-0.9,1.7-1.5,2.9-1.5c2.2,0,3.8,1.7,3.8,4.4c0,2.7-1.5,4.4-3.8,4.4
				C238,30.8,237,30.2,236.3,29.2z M242,26.4c0-2-1.1-3.6-2.9-3.6c-1.2,0-2.3,0.9-2.8,1.7v3.7c0.5,0.8,1.6,1.8,2.8,1.8
				C240.9,30,242,28.4,242,26.4z"/>
			<path fill="#FFFFFF" d="M244.2,30.6V19h0.9v11.6H244.2z"/>
			<path fill="#FFFFFF" d="M255.3,33c0.2,0.1,0.5,0.1,0.7,0.1c0.6,0,0.9-0.2,1.3-1l0.7-1.5l-3.6-8.5h1l3.1,7.3l3-7.3h1l-4.4,10.2
				c-0.5,1.1-1.2,1.6-2.1,1.6c-0.3,0-0.7-0.1-0.9-0.1L255.3,33z"/>
			<path fill="#FFFFFF" d="M252.6,30.6c-0.1-0.3-0.1-0.5-0.1-0.8c0-0.2,0-0.4,0-0.7c-0.3,0.5-0.8,0.8-1.3,1.1
				c-0.6,0.3-1.1,0.4-1.8,0.4c-0.9,0-1.6-0.2-2.1-0.7c-0.5-0.4-0.7-1-0.7-1.8c0-0.8,0.4-1.4,1.1-1.8c0.7-0.5,1.6-0.7,2.8-0.7h2.1v-1
				c0-0.6-0.2-1.1-0.6-1.4c-0.4-0.3-1-0.5-1.7-0.5c-0.7,0-1.2,0.2-1.7,0.5c-0.4,0.3-0.6,0.7-0.6,1.2h-0.9l0,0c0-0.6,0.3-1.2,0.9-1.7
				c0.6-0.5,1.4-0.7,2.4-0.7c1,0,1.8,0.2,2.4,0.7c0.6,0.5,0.9,1.1,0.9,2v4.1c0,0.3,0,0.6,0.1,0.9c0,0.3,0.1,0.6,0.2,0.8H252.6z
				 M249.4,29.9c0.8,0,1.3-0.2,1.9-0.5c0.6-0.3,0.9-0.8,1.1-1.3v-1.6h-2.1c-0.8,0-1.5,0.2-2,0.5c-0.5,0.4-0.8,0.8-0.8,1.3
				c0,0.5,0.2,0.9,0.5,1.2C248.4,29.8,248.8,29.9,249.4,29.9z"/>
		</g>
	</g>
	<g>
		<polygon fill="none" points="167.9,25.9 170.8,23 170.8,23 167.9,25.9 158.7,16.6 158.7,16.6 167.9,25.9 158.6,35.2 158.6,35.2 
			167.9,25.9 170.8,28.8 170.8,28.8 		"/>
		
			<linearGradient id="SVGID_1_" gradientUnits="userSpaceOnUse" x1="602.2841" y1="-587.7621" x2="590.0438" y2="-595.4226" gradientTransform="matrix(0.7071 0.7071 -0.7071 0.7071 -675.5106 14.8849)">
			<stop  offset="0" style="stop-color:#D6FFA1"/>
			<stop  offset="0.3264" style="stop-color:#93E2A7"/>
			<stop  offset="1" style="stop-color:#00A3B5"/>
		</linearGradient>
		<path fill="url(#SVGID_1_)" d="M170.8,23l-11.3-6.2c-0.3-0.2-0.6-0.2-0.9-0.1l9.3,9.3L170.8,23z"/>
		
			<linearGradient id="SVGID_2_" gradientUnits="userSpaceOnUse" x1="595.1674" y1="-594.306" x2="611.0375" y2="-590.1573" gradientTransform="matrix(0.7071 0.7071 -0.7071 0.7071 -675.5106 14.8849)">
			<stop  offset="0" style="stop-color:#FF177B"/>
			<stop  offset="0.6721" style="stop-color:#FFA976"/>
			<stop  offset="1" style="stop-color:#FFEC73"/>
		</linearGradient>
		<path fill="url(#SVGID_2_)" d="M170.8,28.8l3.9-2.1c0.8-0.4,0.8-1.1,0-1.6l-3.9-2.1l-2.9,2.9L170.8,28.8z"/>
		
			<linearGradient id="SVGID_3_" gradientUnits="userSpaceOnUse" x1="604.0269" y1="-581.9514" x2="586.8177" y2="-592.0762" gradientTransform="matrix(0.7071 0.7071 -0.7071 0.7071 -675.5106 14.8849)">
			<stop  offset="0" style="stop-color:#63FFD4"/>
			<stop  offset="0.4854" style="stop-color:#32A0BA"/>
			<stop  offset="0.8349" style="stop-color:#1262A9"/>
			<stop  offset="1" style="stop-color:#064AA2"/>
		</linearGradient>
		<path fill="url(#SVGID_3_)" d="M158.7,16.6c-0.3,0.1-0.6,0.5-0.6,1l0,16.6c0,0.5,0.2,0.9,0.6,1l9.3-9.3L158.7,16.6z"/>
		
			<linearGradient id="SVGID_4_" gradientUnits="userSpaceOnUse" x1="610.2749" y1="-589.9903" x2="599.6788" y2="-576.0305" gradientTransform="matrix(0.7071 0.7071 -0.7071 0.7071 -675.5106 14.8849)">
			<stop  offset="0" style="stop-color:#FF4521"/>
			<stop  offset="0.3411" style="stop-color:#D43E65"/>
			<stop  offset="0.7935" style="stop-color:#9F36B9"/>
			<stop  offset="1" style="stop-color:#8A33DB"/>
		</linearGradient>
		<path fill="url(#SVGID_4_)" d="M158.6,35.2c0.2,0.1,0.5,0,0.9-0.1l11.3-6.2l-2.9-2.9L158.6,35.2z"/>
	</g>
	<g>
		<g>
			<path fill="#FFFFFF" d="M179.7,9.5c0-1.8,1.3-2.9,3-2.9c1.1,0,1.8,0.5,2.3,1.2l-0.8,0.5c-0.3-0.4-0.8-0.8-1.5-0.8
				c-1.1,0-2,0.8-2,2c0,1.2,0.8,2,2,2c0.6,0,1.1-0.3,1.3-0.5v-0.9h-1.7V9.3h2.7v2.1c-0.6,0.6-1.3,1-2.3,1
				C181.1,12.4,179.7,11.2,179.7,9.5z"/>
			<path fill="#FFFFFF" d="M186.3,12.3V6.6h3.9v0.9h-2.9V9h2.8v0.9h-2.8v1.6h2.9v0.9H186.3z"/>
			<path fill="#FFFFFF" d="M192.9,12.3V7.5h-1.7V6.6h4.4v0.9h-1.7v4.8H192.9z"/>
			<path fill="#FFFFFF" d="M199,12.3V6.6h1v5.7H199z"/>
			<path fill="#FFFFFF" d="M202.8,12.3V7.5h-1.7V6.6h4.4v0.9h-1.7v4.8H202.8z"/>
			<path fill="#FFFFFF" d="M208.7,9.5c0-1.7,1.2-2.9,2.9-2.9c1.7,0,2.9,1.2,2.9,2.9c0,1.7-1.2,2.9-2.9,2.9
				C209.9,12.4,208.7,11.2,208.7,9.5z M213.5,9.5c0-1.2-0.7-2-1.9-2c-1.1,0-1.9,0.9-1.9,2c0,1.2,0.7,2,1.9,2
				C212.8,11.5,213.5,10.6,213.5,9.5z"/>
			<path fill="#FFFFFF" d="M219.6,12.3l-3-4v4h-1V6.6h1l2.9,3.9V6.6h1v5.7H219.6z"/>
		</g>
	</g>
</g>
</svg>
